<?xml version='1.0' encoding='UTF-8' standalone='no'?>
<!-- Created with Fritzing (http://www.fritzing.org/) -->
<svg xmlns:svg='http://www.w3.org/2000/svg' xmlns='http://www.w3.org/2000/svg' version='1.2' baseProfile='tiny' x='0in' y='0in' width='3.34496in' height='2.02223in' viewBox='0 0 240.837 145.601' >
<g partID='58190'><g transform='translate(86.8872,57.6006)' ><g xmlns="http://www.w3.org/2000/svg" id="schematic">
<rect width="63.9" xmlns="http://www.w3.org/2000/svg" height="78.3" stroke-width="0.9" fill="#FFFFFF" class="interior rect" x="14.85" stroke="#000000" stroke-linecap="round" y="0.45"/>
<g xmlns="http://www.w3.org/2000/svg" stroke-width="0" font-family="'Droid Sans'" stroke="none" stroke-linecap="round">
<g font-size="3.49999" xmlns="http://www.w3.org/2000/svg" fill="none" class="pins">
<g text-anchor="start" xmlns="http://www.w3.org/2000/svg" class="pins-left">
<line xmlns="http://www.w3.org/2000/svg" x1="0.349999" stroke-width="0.699999" y2="14.4" stroke="#787878" x2="14.75" id="connector0pin" y1="14.4"/>
<text xmlns="http://www.w3.org/2000/svg" fill="#8c8c8c" x="16.15" y="15.0999">RST</text>
<g width="0.699999" xmlns="http://www.w3.org/2000/svg" height="0.699999" x="-0.349999" y="14.0499" id="connector0terminal"/>
<line xmlns="http://www.w3.org/2000/svg" x1="0.349999" stroke-width="0.699999" y2="21.6" stroke="#787878" x2="14.75" id="connector1pin" y1="21.6"/>
<text xmlns="http://www.w3.org/2000/svg" fill="#8c8c8c" x="16.15" y="22.2999">A0</text>
<g width="0.699999" xmlns="http://www.w3.org/2000/svg" height="0.699999" x="-0.349999" y="21.2499" id="connector1terminal"/>
<line xmlns="http://www.w3.org/2000/svg" x1="0.349999" stroke-width="0.699999" y2="28.8" stroke="#787878" x2="14.75" id="connector2pin" y1="28.8"/>
<text xmlns="http://www.w3.org/2000/svg" fill="#8c8c8c" x="16.15" y="29.4999">D0</text>
<g width="0.699999" xmlns="http://www.w3.org/2000/svg" height="0.699999" x="-0.349999" y="28.4499" id="connector2terminal"/>
<line xmlns="http://www.w3.org/2000/svg" x1="0.349999" stroke-width="0.699999" y2="36" stroke="#787878" x2="14.75" id="connector3pin" y1="36"/>
<text xmlns="http://www.w3.org/2000/svg" fill="#8c8c8c" x="16.15" y="36.6999">D5</text>
<g width="0.699999" xmlns="http://www.w3.org/2000/svg" height="0.699999" x="-0.349999" y="35.6499" id="connector3terminal"/>
<line xmlns="http://www.w3.org/2000/svg" x1="0.349999" stroke-width="0.699999" y2="43.2" stroke="#787878" x2="14.75" id="connector4pin" y1="43.2"/>
<text xmlns="http://www.w3.org/2000/svg" fill="#8c8c8c" x="16.15" y="43.8999">D6</text>
<g width="0.699999" xmlns="http://www.w3.org/2000/svg" height="0.699999" x="-0.349999" y="42.8499" id="connector4terminal"/>
<line xmlns="http://www.w3.org/2000/svg" x1="0.349999" stroke-width="0.699999" y2="50.4" stroke="#787878" x2="14.75" id="connector5pin" y1="50.4"/>
<text xmlns="http://www.w3.org/2000/svg" fill="#8c8c8c" x="16.15" y="51.0999">D7</text>
<g width="0.699999" xmlns="http://www.w3.org/2000/svg" height="0.699999" x="-0.349999" y="50.0499" id="connector5terminal"/>
<line xmlns="http://www.w3.org/2000/svg" x1="0.349999" stroke-width="0.699999" y2="57.6" stroke="#787878" x2="14.75" id="connector6pin" y1="57.6"/>
<text xmlns="http://www.w3.org/2000/svg" fill="#8c8c8c" x="16.15" y="58.2999">D8</text>
<g width="0.699999" xmlns="http://www.w3.org/2000/svg" height="0.699999" x="-0.349999" y="57.2499" id="connector6terminal"/>
<line xmlns="http://www.w3.org/2000/svg" x1="0.349999" stroke-width="0.699999" y2="64.8" stroke="#787878" x2="14.75" id="connector7pin" y1="64.8"/>
<text xmlns="http://www.w3.org/2000/svg" fill="#8c8c8c" x="16.15" y="65.4999">3V3</text>
<g width="0.699999" xmlns="http://www.w3.org/2000/svg" height="0.699999" x="-0.349999" y="64.4499" id="connector7terminal"/>
</g>
<g text-anchor="end" xmlns="http://www.w3.org/2000/svg" class="pins-right">
<line xmlns="http://www.w3.org/2000/svg" x1="78.8499" stroke-width="0.699999" y2="64.8" stroke="#787878" x2="93.2499" id="connector8pin" y1="64.8"/>
<text xmlns="http://www.w3.org/2000/svg" fill="#8c8c8c" x="77.4499" y="65.4999">5V</text>
<g width="0.699999" xmlns="http://www.w3.org/2000/svg" height="0.699999" x="93.2499" y="64.4499" id="connector8terminal"/>
<line xmlns="http://www.w3.org/2000/svg" x1="78.8499" stroke-width="0.699999" y2="57.6" stroke="#787878" x2="93.2499" id="connector9pin" y1="57.6"/>
<text xmlns="http://www.w3.org/2000/svg" fill="#8c8c8c" x="77.4499" y="58.2999">G</text>
<g width="0.699999" xmlns="http://www.w3.org/2000/svg" height="0.699999" x="93.2499" y="57.2499" id="connector9terminal"/>
<line xmlns="http://www.w3.org/2000/svg" x1="78.8499" stroke-width="0.699999" y2="50.4" stroke="#787878" x2="93.2499" id="connector10pin" y1="50.4"/>
<text xmlns="http://www.w3.org/2000/svg" fill="#8c8c8c" x="77.4499" y="51.0999">D4</text>
<g width="0.699999" xmlns="http://www.w3.org/2000/svg" height="0.699999" x="93.2499" y="50.0499" id="connector10terminal"/>
<line xmlns="http://www.w3.org/2000/svg" x1="78.8499" stroke-width="0.699999" y2="43.2" stroke="#787878" x2="93.2499" id="connector11pin" y1="43.2"/>
<text xmlns="http://www.w3.org/2000/svg" fill="#8c8c8c" x="77.4499" y="43.8999">D3</text>
<g width="0.699999" xmlns="http://www.w3.org/2000/svg" height="0.699999" x="93.2499" y="42.8499" id="connector11terminal"/>
<line xmlns="http://www.w3.org/2000/svg" x1="78.8499" stroke-width="0.699999" y2="36" stroke="#787878" x2="93.2499" id="connector12pin" y1="36"/>
<text xmlns="http://www.w3.org/2000/svg" fill="#8c8c8c" x="77.4499" y="36.6999">D2</text>
<g width="0.699999" xmlns="http://www.w3.org/2000/svg" height="0.699999" x="93.2499" y="35.6499" id="connector12terminal"/>
<line xmlns="http://www.w3.org/2000/svg" x1="78.8499" stroke-width="0.699999" y2="28.8" stroke="#787878" x2="93.2499" id="connector13pin" y1="28.8"/>
<text xmlns="http://www.w3.org/2000/svg" fill="#8c8c8c" x="77.4499" y="29.4999">D1</text>
<g width="0.699999" xmlns="http://www.w3.org/2000/svg" height="0.699999" x="93.2499" y="28.4499" id="connector13terminal"/>
<line xmlns="http://www.w3.org/2000/svg" x1="78.8499" stroke-width="0.699999" y2="21.6" stroke="#787878" x2="93.2499" id="connector14pin" y1="21.6"/>
<text xmlns="http://www.w3.org/2000/svg" fill="#8c8c8c" x="77.4499" y="22.2999">RX</text>
<g width="0.699999" xmlns="http://www.w3.org/2000/svg" height="0.699999" x="93.2499" y="21.2499" id="connector14terminal"/>
<line xmlns="http://www.w3.org/2000/svg" x1="78.8499" stroke-width="0.699999" y2="14.4" stroke="#787878" x2="93.2499" id="connector15pin" y1="14.4"/>
<text xmlns="http://www.w3.org/2000/svg" fill="#8c8c8c" x="77.4499" y="15.0999">TX</text>
<g width="0.699999" xmlns="http://www.w3.org/2000/svg" height="0.699999" x="93.2499" y="14.0499" id="connector15terminal"/>
</g>
</g>
<g text-anchor="middle" font-size="4.25001" xmlns="http://www.w3.org/2000/svg" fill="#000000">
<text xmlns="http://www.w3.org/2000/svg" x="46.8283" y="39.685">WeMos D1 mini</text>
</g>
</g>
</g>
</g></g><g partID='62810'><g transform='translate(40.9867,107.784)' ><g id="schematic">
<g>
<path d="M13.5,14.966L9.9,14.966c-0.193,0,-0.35,-0.156,-0.35,-0.35s0.156,-0.35,0.35,-0.35L13.5,14.266c0.193,0,0.35,0.156,0.35,0.35S13.694,14.966,13.5,14.966z"/>
</g>
<g>
<path d="M9.9,14.966L6.3,14.966c-0.193,0,-0.35,-0.156,-0.35,-0.35s0.157,-0.35,0.35,-0.35l3.6,0c0.193,0,0.35,0.156,0.35,0.35S10.093,14.966,9.9,14.966z"/>
</g>
<g>
<polygon points="9.9,14.616,6.3,7.416,9.9,7.416,13.5,7.416" fill="#FFFFFF"/>
<path d="M9.9,15.398L5.734,7.066l8.333,0L9.9,15.398zM6.866,7.766L9.9,13.834l3.034,-6.068L6.866,7.766z"/>
</g>
<g>
<path d="M9.9,14.841c-0.124,0,-0.225,-0.101,-0.225,-0.225l0,-7.2c0,-0.124,0.101,-0.225,0.225,-0.225s0.225,0.101,0.225,0.225l0,7.2C10.124,14.74,10.024,14.841,9.9,14.841z"/>
</g>
<g>
<path d="M1.8,12.141c-0.058,0,-0.115,-0.021,-0.159,-0.065c-0.088,-0.088,-0.088,-0.23,0,-0.318l2.34,-2.341c0.088,-0.088,0.23,-0.088,0.318,0s0.088,0.23,0,0.318l-2.34,2.341C1.915,12.12,1.858,12.141,1.8,12.141z"/>
</g>
<g>
<path d="M2.16,15.381c-0.058,0,-0.115,-0.021,-0.159,-0.065c-0.088,-0.088,-0.088,-0.23,0,-0.318l2.34,-2.34c0.088,-0.088,0.23,-0.088,0.318,0s0.088,0.23,0,0.318l-2.34,2.34C2.276,15.359,2.218,15.381,2.16,15.381z"/>
</g>
<g id="connector0pin">
<path fill="#787878" d="M9.9,22.166c-0.193,0,-0.35,-0.156,-0.35,-0.35l0,-7.2c0,-0.193,0.156,-0.35,0.35,-0.35s0.35,0.156,0.35,0.35l0,7.2C10.249,22.01,10.093,22.166,9.9,22.166z"/>
</g>
<g id="connector0terminal">
<rect width="0.001" height="0.001" fill="none" x="9.9" y="21.816"/>
</g>
<g transform="matrix(1, 0, 0, 1, 3.429, 6.4262)">
<g>
<g transform="rotate(270)">
<g>
<g enable-background="new    ">
<path fill="#787878" d="M-11.647,5.54l-0.891,0L-12.538,5.388l0.342,-0.372c0.049,-0.053,0.093,-0.101,0.131,-0.145s0.071,-0.086,0.099,-0.128c0.026,-0.042,0.047,-0.084,0.062,-0.125c0.015,-0.043,0.021,-0.088,0.021,-0.138c0,-0.038,-0.005,-0.072,-0.017,-0.102s-0.027,-0.054,-0.047,-0.075c-0.021,-0.02,-0.045,-0.035,-0.073,-0.046s-0.06,-0.016,-0.094,-0.016c-0.062,0,-0.118,0.013,-0.167,0.038c-0.051,0.024,-0.098,0.057,-0.143,0.096l-0.1,-0.116c0.025,-0.023,0.055,-0.046,0.084,-0.065c0.029,-0.021,0.063,-0.039,0.097,-0.054s0.071,-0.026,0.109,-0.036c0.038,-0.008,0.079,-0.013,0.121,-0.013c0.063,0,0.119,0.009,0.169,0.026c0.051,0.018,0.094,0.043,0.129,0.076c0.035,0.032,0.063,0.072,0.082,0.119c0.019,0.048,0.028,0.101,0.028,0.16c0,0.056,-0.009,0.108,-0.026,0.158c-0.017,0.05,-0.041,0.1,-0.07,0.148c-0.031,0.048,-0.066,0.097,-0.109,0.146c-0.041,0.049,-0.087,0.1,-0.136,0.152L-12.32,5.37l0,0.008l0.673,0L-11.647,5.54z"/>
</g>
</g>
</g>
</g>
</g>
<g id="connector1pin">
<path fill="#787878" d="M9.9,7.766c-0.193,0,-0.35,-0.157,-0.35,-0.35l0,-7.2c0,-0.193,0.156,-0.35,0.35,-0.35s0.35,0.157,0.35,0.35l0,7.2C10.249,7.609,10.093,7.766,9.9,7.766z"/>
</g>
<g id="connector1terminal">
<polygon points="9.9,0.216,9.901,0.216,9.901,0.216" fill="none"/>
</g>
<g transform="matrix(1, 0, 0, 1, 3.429, 1.3462)">
<g>
<g transform="rotate(270)">
<g>
<g enable-background="new    ">
<path fill="#787878" d="M-2.616,5.54l-0.172,0L-2.788,4.648c0,-0.028,0,-0.058,0,-0.09s0.001,-0.063,0.002,-0.095c0.001,-0.032,0.002,-0.063,0.003,-0.092c0.001,-0.028,0.002,-0.054,0.002,-0.076c-0.011,0.012,-0.021,0.021,-0.029,0.03s-0.017,0.017,-0.026,0.024s-0.018,0.016,-0.028,0.025c-0.01,0.008,-0.021,0.019,-0.035,0.03l-0.145,0.118l-0.094,-0.12l0.374,-0.292l0.146,0L-2.618,5.54z"/>
</g>
</g>
</g>
</g>
</g>
<g>
<path d="M0.18,13.536l1.08,-2.521l1.44,1.438L0.18,13.536z"/>
</g>
<g>
<path d="M0.54,16.776l1.08,-2.521l1.438,1.438L0.54,16.776z"/>
</g>
</g>
</g></g><g partID='63410'><g transform='translate(128.693,0)' ><g transform='matrix(0,1,1,0,0,0)'  ><g id="schematic">
<line stroke-width="0.9" x1="18" stroke-linejoin="round" y2="16.326" fill="none" stroke="#000000" stroke-linecap="round" x2="21.601" y1="19.926"/>
<line stroke-width="0.9" x1="21.601" stroke-linejoin="round" y2="19.926" fill="none" stroke="#000000" stroke-linecap="round" x2="25.2" y1="16.326"/>
<line stroke-width="0.9" x1="25.2" stroke-linejoin="round" y2="19.926" fill="none" stroke="#000000" stroke-linecap="round" x2="28.8" y1="19.926"/>
<line stroke-width="0.9" x1="28.8" stroke-linejoin="round" y2="12.726" fill="none" stroke="#000000" stroke-linecap="round" x2="18" y1="12.726"/>
<line stroke-width="0.9" x1="18" stroke-linejoin="round" y2="16.326" fill="none" stroke="#000000" stroke-linecap="round" x2="14.4" y1="12.726"/>
<line stroke-width="0.9" x1="14.4" stroke-linejoin="round" y2="12.726" fill="none" stroke="#000000" stroke-linecap="round" x2="10.8" y1="16.326"/>
<line stroke-width="0.9" x1="28.8" stroke-linejoin="round" y2="5.527" fill="none" stroke="#000000" stroke-linecap="round" x2="7.2" y1="5.527"/>
<rect width="14.4" height="4.319" y="10.567"/>
<line stroke-width="0.75" x1="36" y2="12.726" fill="none" stroke="#787878" stroke-linecap="round" x2="28.8" id="connector0pin" y1="12.726"/>
<g width="0.001" height="0.001" fill="none" x="36" y="12.726" id="connector0terminal"/>
<g transform="matrix(1, 0, 0, 1, 25.7002, 11.0022)">
<text font-size="3.024" font-family="'DroidSans'">RIGHT</text>
</g>
<line stroke-width="0.75" x1="36" y2="19.926" fill="none" stroke="#787878" stroke-linecap="round" x2="28.8" id="connector3pin" y1="19.926"/>
<g width="0.001" height="0" fill="none" x="36" y="19.926" id="connector3terminal"/>
<g transform="matrix(1, 0, 0, 1, 25.7002, 18.2034)">
<text font-size="3.024" font-family="'DroidSans'">LEFT</text>
</g>
<line stroke-width="0.75" x1="36" y2="5.527" fill="none" stroke="#787878" stroke-linecap="round" x2="28.8" id="connector2pin" y1="5.527"/>
<g width="0.001" height="0" fill="none" x="36" y="5.527" id="connector2terminal"/>
<g transform="matrix(1, 0, 0, 1, 25.7002, 3.802)">
<text font-size="3.024" font-family="'DroidSans'">SLEEVE</text>
</g>
</g>
</g></g></g><g partID='63700'><g transform='translate(50.5368,126.504)' ><g xmlns="http://www.w3.org/2000/svg" id="schematic">
<line xmlns="http://www.w3.org/2000/svg" x1="7.55002" stroke-width="0.432002" y2="0.216" class="other" stroke="#000000" stroke-linecap="round" x2="8.63003" y1="3.096"/>
<line xmlns="http://www.w3.org/2000/svg" x1="8.63003" stroke-width="0.432002" y2="5.976" class="other" stroke="#000000" stroke-linecap="round" x2="10.43" y1="0.216"/>
<line xmlns="http://www.w3.org/2000/svg" x1="10.43" stroke-width="0.432002" y2="0.216" class="other" stroke="#000000" stroke-linecap="round" x2="12.23" y1="5.976"/>
<line xmlns="http://www.w3.org/2000/svg" x1="12.23" stroke-width="0.432002" y2="5.976" class="other" stroke="#000000" stroke-linecap="round" x2="14.03" y1="0.216"/>
<line xmlns="http://www.w3.org/2000/svg" x1="14.03" stroke-width="0.432002" y2="0.216" class="other" stroke="#000000" stroke-linecap="round" x2="15.8301" y1="5.976"/>
<line xmlns="http://www.w3.org/2000/svg" x1="15.8301" stroke-width="0.432002" y2="5.976" class="other" stroke="#000000" stroke-linecap="round" x2="17.6301" y1="0.216"/>
<line xmlns="http://www.w3.org/2000/svg" x1="17.6301" stroke-width="0.432002" y2="0.216" class="other" stroke="#000000" stroke-linecap="round" x2="19.4301" y1="5.976"/>
<line xmlns="http://www.w3.org/2000/svg" x1="19.4301" stroke-width="0.432002" y2="5.976" class="other" stroke="#000000" stroke-linecap="round" x2="21.2301" y1="0.216"/>
<line xmlns="http://www.w3.org/2000/svg" x1="21.2301" stroke-width="0.432002" y2="3.096" class="other" stroke="#000000" stroke-linecap="round" x2="21.9501" y1="5.976"/>
<line xmlns="http://www.w3.org/2000/svg" x1="29.1502" stroke-width="0.700001" connectorname="2" y2="3.096" class="pin" stroke="#787878" stroke-linecap="round" x2="21.9501" id="connector1pin" y1="3.096"/>
<g width="0.000283466" xmlns="http://www.w3.org/2000/svg" height="0.000283465" stroke-width="0" fill="none" class="terminal" x="29.1502" stroke="none" y="3.096" id="connector1terminal"/>
<text text-anchor="middle" font-size="2.50001" xmlns="http://www.w3.org/2000/svg" stroke-width="0" font-family="'Droid Sans'" fill="#8c8c8c" class="text" x="25.5501" stroke="none" y="2.046">2</text>
<line xmlns="http://www.w3.org/2000/svg" x1="0.350001" stroke-width="0.700001" connectorname="1" y2="3.096" class="pin" stroke="#787878" stroke-linecap="round" x2="7.55002" id="connector0pin" y1="3.096"/>
<g width="0.000283466" xmlns="http://www.w3.org/2000/svg" height="0.000283465" stroke-width="0" fill="none" class="terminal" x="0.350001" stroke="none" y="3.096" id="connector0terminal"/>
<text text-anchor="middle" font-size="2.50001" xmlns="http://www.w3.org/2000/svg" stroke-width="0" font-family="'Droid Sans'" fill="#8c8c8c" class="text" x="3.95001" stroke="none" y="2.046">1</text>
</g>
</g></g><g partID='63890'><g transform='translate(219.583,86.0502)' ><g transform='matrix(0,1,-1,0,0,0)'  ><g xmlns="http://www.w3.org/2000/svg" id="schematic">
<line xmlns="http://www.w3.org/2000/svg" x1="7.55002" stroke-width="0.432002" y2="0.216" class="other" stroke="#000000" stroke-linecap="round" x2="8.63003" y1="3.096"/>
<line xmlns="http://www.w3.org/2000/svg" x1="8.63003" stroke-width="0.432002" y2="5.976" class="other" stroke="#000000" stroke-linecap="round" x2="10.43" y1="0.216"/>
<line xmlns="http://www.w3.org/2000/svg" x1="10.43" stroke-width="0.432002" y2="0.216" class="other" stroke="#000000" stroke-linecap="round" x2="12.23" y1="5.976"/>
<line xmlns="http://www.w3.org/2000/svg" x1="12.23" stroke-width="0.432002" y2="5.976" class="other" stroke="#000000" stroke-linecap="round" x2="14.03" y1="0.216"/>
<line xmlns="http://www.w3.org/2000/svg" x1="14.03" stroke-width="0.432002" y2="0.216" class="other" stroke="#000000" stroke-linecap="round" x2="15.8301" y1="5.976"/>
<line xmlns="http://www.w3.org/2000/svg" x1="15.8301" stroke-width="0.432002" y2="5.976" class="other" stroke="#000000" stroke-linecap="round" x2="17.6301" y1="0.216"/>
<line xmlns="http://www.w3.org/2000/svg" x1="17.6301" stroke-width="0.432002" y2="0.216" class="other" stroke="#000000" stroke-linecap="round" x2="19.4301" y1="5.976"/>
<line xmlns="http://www.w3.org/2000/svg" x1="19.4301" stroke-width="0.432002" y2="5.976" class="other" stroke="#000000" stroke-linecap="round" x2="21.2301" y1="0.216"/>
<line xmlns="http://www.w3.org/2000/svg" x1="21.2301" stroke-width="0.432002" y2="3.096" class="other" stroke="#000000" stroke-linecap="round" x2="21.9501" y1="5.976"/>
<line xmlns="http://www.w3.org/2000/svg" x1="29.1502" stroke-width="0.700001" connectorname="2" y2="3.096" class="pin" stroke="#787878" stroke-linecap="round" x2="21.9501" id="connector1pin" y1="3.096"/>
<g width="0.000283466" xmlns="http://www.w3.org/2000/svg" height="0.000283465" stroke-width="0" fill="none" class="terminal" x="29.1502" stroke="none" y="3.096" id="connector1terminal"/>
<text text-anchor="middle" font-size="2.50001" xmlns="http://www.w3.org/2000/svg" stroke-width="0" font-family="'Droid Sans'" fill="#8c8c8c" class="text" x="25.5501" stroke="none" y="2.046">2</text>
<line xmlns="http://www.w3.org/2000/svg" x1="0.350001" stroke-width="0.700001" connectorname="1" y2="3.096" class="pin" stroke="#787878" stroke-linecap="round" x2="7.55002" id="connector0pin" y1="3.096"/>
<g width="0.000283466" xmlns="http://www.w3.org/2000/svg" height="0.000283465" stroke-width="0" fill="none" class="terminal" x="0.350001" stroke="none" y="3.096" id="connector0terminal"/>
<text text-anchor="middle" font-size="2.50001" xmlns="http://www.w3.org/2000/svg" stroke-width="0" font-family="'Droid Sans'" fill="#8c8c8c" class="text" x="3.95001" stroke="none" y="2.046">1</text>
</g>
</g></g></g><g partID='63870'><g transform='translate(190.783,86.0502)' ><g transform='matrix(0,1,-1,0,0,0)'  ><g xmlns="http://www.w3.org/2000/svg" id="schematic">
<line xmlns="http://www.w3.org/2000/svg" x1="7.55002" stroke-width="0.432002" y2="0.216" class="other" stroke="#000000" stroke-linecap="round" x2="8.63003" y1="3.096"/>
<line xmlns="http://www.w3.org/2000/svg" x1="8.63003" stroke-width="0.432002" y2="5.976" class="other" stroke="#000000" stroke-linecap="round" x2="10.43" y1="0.216"/>
<line xmlns="http://www.w3.org/2000/svg" x1="10.43" stroke-width="0.432002" y2="0.216" class="other" stroke="#000000" stroke-linecap="round" x2="12.23" y1="5.976"/>
<line xmlns="http://www.w3.org/2000/svg" x1="12.23" stroke-width="0.432002" y2="5.976" class="other" stroke="#000000" stroke-linecap="round" x2="14.03" y1="0.216"/>
<line xmlns="http://www.w3.org/2000/svg" x1="14.03" stroke-width="0.432002" y2="0.216" class="other" stroke="#000000" stroke-linecap="round" x2="15.8301" y1="5.976"/>
<line xmlns="http://www.w3.org/2000/svg" x1="15.8301" stroke-width="0.432002" y2="5.976" class="other" stroke="#000000" stroke-linecap="round" x2="17.6301" y1="0.216"/>
<line xmlns="http://www.w3.org/2000/svg" x1="17.6301" stroke-width="0.432002" y2="0.216" class="other" stroke="#000000" stroke-linecap="round" x2="19.4301" y1="5.976"/>
<line xmlns="http://www.w3.org/2000/svg" x1="19.4301" stroke-width="0.432002" y2="5.976" class="other" stroke="#000000" stroke-linecap="round" x2="21.2301" y1="0.216"/>
<line xmlns="http://www.w3.org/2000/svg" x1="21.2301" stroke-width="0.432002" y2="3.096" class="other" stroke="#000000" stroke-linecap="round" x2="21.9501" y1="5.976"/>
<line xmlns="http://www.w3.org/2000/svg" x1="29.1502" stroke-width="0.700001" connectorname="2" y2="3.096" class="pin" stroke="#787878" stroke-linecap="round" x2="21.9501" id="connector1pin" y1="3.096"/>
<g width="0.000283466" xmlns="http://www.w3.org/2000/svg" height="0.000283465" stroke-width="0" fill="none" class="terminal" x="29.1502" stroke="none" y="3.096" id="connector1terminal"/>
<text text-anchor="middle" font-size="2.50001" xmlns="http://www.w3.org/2000/svg" stroke-width="0" font-family="'Droid Sans'" fill="#8c8c8c" class="text" x="25.5501" stroke="none" y="2.046">2</text>
<line xmlns="http://www.w3.org/2000/svg" x1="0.350001" stroke-width="0.700001" connectorname="1" y2="3.096" class="pin" stroke="#787878" stroke-linecap="round" x2="7.55002" id="connector0pin" y1="3.096"/>
<g width="0.000283466" xmlns="http://www.w3.org/2000/svg" height="0.000283465" stroke-width="0" fill="none" class="terminal" x="0.350001" stroke="none" y="3.096" id="connector0terminal"/>
<text text-anchor="middle" font-size="2.50001" xmlns="http://www.w3.org/2000/svg" stroke-width="0" font-family="'Droid Sans'" fill="#8c8c8c" class="text" x="3.95001" stroke="none" y="2.046">1</text>
</g>
</g></g></g><g partID='63490'><line stroke-linecap='round' stroke='#404040' x1='86.8872' y1='108' x2='50.8872' y2='108' stroke-width='0.699998' /></g><g partID='63560'><line stroke-linecap='round' stroke='#404040' x1='50.887' y1='129.6' x2='50.8872' y2='129.601' stroke-width='0.699998' /></g><g partID='63630'><line stroke-linecap='round' stroke='#404040' x1='86.8872' y1='122.4' x2='79.6872' y2='129.6' stroke-width='0.699998' /></g><g partID='64380'><line stroke-linecap='round' stroke='#404040' x1='187.687' y1='43.2005' x2='148.619' y2='36.0005' stroke-width='0.699998' /></g><circle  fill="black" cx="148.619" cy="36.0005" r="1.44" stroke-width="0" stroke="none" /><g partID='63910'><line stroke-linecap='round' stroke='#404040' x1='187.687' y1='86.4003' x2='187.687' y2='43.2005' stroke-width='0.699998' /></g><g partID='63980'><line stroke-linecap='round' stroke='#404040' x1='180.487' y1='115.2' x2='187.687' y2='115.2' stroke-width='0.699998' /></g><g partID='64270'><line stroke-linecap='round' stroke='#404040' x1='216.487' y1='36.0005' x2='148.619' y2='36.0005' stroke-width='0.699998' /></g><circle  fill="black" cx="148.619" cy="36.0005" r="1.44" stroke-width="0" stroke="none" /><g partID='64090'><line stroke-linecap='round' stroke='#404040' x1='216.487' y1='86.4003' x2='216.487' y2='36.0005' stroke-width='0.699998' /></g><g partID='64200'><line stroke-linecap='round' stroke='#404040' x1='180.487' y1='122.4' x2='216.487' y2='122.4' stroke-width='0.699998' /></g><g partID='64490'><line stroke-linecap='round' stroke='#404040' x1='216.487' y1='122.4' x2='216.487' y2='115.2' stroke-width='0.699998' /></g><g partID='64560'><line stroke-linecap='round' stroke='#404040' x1='79.6872' y1='79.2005' x2='79.9538' y2='35.7338' stroke-width='0.699998' /></g><g partID='64630'><line stroke-linecap='round' stroke='#404040' x1='79.9538' y1='35.7338' x2='134.22' y2='36.0005' stroke-width='0.699998' /></g><g partID='64700'><line stroke-linecap='round' stroke='#404040' x1='79.6872' y1='79.2005' x2='86.8872' y2='79.2005' stroke-width='0.699998' /></g><g partID='58190' id='partLabel'><g transform='translate(114.087,140.001)' ><g font-size='5' font-style='normal' font-weight='normal' fill='#000000' font-family="'DroidSans'" id='schematicLabel' fill-opacity='1' stroke='none' ><text x='0' y='3.75'>WeMos D1 Mini1</text></g></g></g><g partID='62810' id='partLabel'><g transform='translate(0,111.251)' ><g font-size='5' font-style='normal' font-weight='normal' fill='#000000' font-family="'DroidSans'" id='schematicLabel' fill-opacity='1' stroke='none' ><text x='0' y='3.75'>LED1</text><text x='0' y='8.75'>Infrared (940nm)</text><text x='0' y='13.75'>0.1A</text></g></g></g><g partID='63410' id='partLabel'><g transform='translate(155.614,36.584)' ><g transform='matrix(0,1,-1,0,0,0)'  ><g font-size='5' font-style='normal' font-weight='normal' fill='#000000' font-family="'DroidSans'" id='schematicLabel' fill-opacity='1' stroke='none' ><text x='0' y='3.75'>U1</text></g></g></g></g><g partID='63700' id='partLabel'><g transform='translate(59.2368,115.304)' ><g font-size='5' font-style='normal' font-weight='normal' fill='#000000' font-family="'DroidSans'" id='schematicLabel' fill-opacity='1' stroke='none' ><text x='0' y='3.75'>R1</text><text x='0' y='8.75'>100&#x3a9;</text></g></g></g><g partID='63870' id='partLabel'><g transform='translate(192.304,95.8375)' ><g font-size='5' font-style='normal' font-weight='normal' fill='#000000' font-family="'DroidSans'" id='schematicLabel' fill-opacity='1' stroke='none' ><text x='0' y='3.75'>R2</text><text x='0' y='8.75'>470k&#x3a9;</text></g></g></g><g partID='63890' id='partLabel'><g transform='translate(222.437,95.5708)' ><g font-size='5' font-style='normal' font-weight='normal' fill='#000000' font-family="'DroidSans'" id='schematicLabel' fill-opacity='1' stroke='none' ><text x='0' y='3.75'>R3</text><text x='0' y='8.75'>470k&#x3a9;</text></g></g></g></svg>